<svg xmlns="http://www.w3.org/2000/svg" viewBox="0 0 91 91" width="564" height="564" shape-rendering="crispEdges" role="img" aria-labelledby="t d">
<title id="t">Orange pixel-art bear paw print</title>
<desc id="d">An 8-bit style orange bear paw print with four toe pads, claw marks, a large main pad outlined by a gray inner marking, and scattered spatter specks, on a black background.</desc>
<rect width="91" height="91" fill="#000000"/>
<rect x="40" y="1" width="1" height="1" fill="#fd7f3a"/>
<rect x="52" y="1" width="2" height="1" fill="#fd7f3a"/>
<rect x="40" y="2" width="2" height="1" fill="#fd7f3a"/>
<rect x="52" y="2" width="2" height="1" fill="#fd7f3a"/>
<rect x="38" y="4" width="2" height="1" fill="#fd7f3a"/>
<rect x="54" y="4" width="2" height="1" fill="#fd6411"/>
<rect x="37" y="5" width="1" height="1" fill="#fd7f3a"/>
<rect x="38" y="5" width="1" height="1" fill="#fd6411"/>
<rect x="39" y="5" width="1" height="1" fill="#fd7f3a"/>
<rect x="54" y="5" width="2" height="1" fill="#fd6411"/>
<rect x="36" y="6" width="2" height="1" fill="#fd7f3a"/>
<rect x="38" y="6" width="2" height="1" fill="#fd6411"/>
<rect x="54" y="6" width="4" height="1" fill="#fd6411"/>
<rect x="36" y="7" width="2" height="1" fill="#fd7f3a"/>
<rect x="38" y="7" width="2" height="1" fill="#fd6411"/>
<rect x="54" y="7" width="4" height="1" fill="#fd6411"/>
<rect x="36" y="8" width="2" height="1" fill="#fd7f3a"/>
<rect x="38" y="8" width="2" height="1" fill="#fd6411"/>
<rect x="54" y="8" width="4" height="1" fill="#fd6411"/>
<rect x="54" y="9" width="4" height="1" fill="#fd6411"/>
<rect x="54" y="10" width="4" height="1" fill="#fd6411"/>
<rect x="36" y="12" width="2" height="1" fill="#fd7f3a"/>
<rect x="35" y="13" width="3" height="1" fill="#fd7f3a"/>
<rect x="34" y="14" width="6" height="1" fill="#fd7f3a"/>
<rect x="40" y="14" width="2" height="1" fill="#fd6411"/>
<rect x="58" y="14" width="2" height="1" fill="#fd6411"/>
<rect x="33" y="15" width="3" height="1" fill="#fd7f3a"/>
<rect x="36" y="15" width="6" height="1" fill="#fd6411"/>
<rect x="32" y="16" width="4" height="1" fill="#fd7f3a"/>
<rect x="36" y="16" width="8" height="1" fill="#fd6411"/>
<rect x="50" y="16" width="6" height="1" fill="#fd7f3a"/>
<rect x="56" y="16" width="2" height="1" fill="#fd6411"/>
<rect x="32" y="17" width="12" height="1" fill="#fd6411"/>
<rect x="50" y="17" width="2" height="1" fill="#fd7f3a"/>
<rect x="52" y="17" width="6" height="1" fill="#fd6411"/>
<rect x="20" y="18" width="2" height="1" fill="#fd7f3a"/>
<rect x="28" y="18" width="4" height="1" fill="#fd7f3a"/>
<rect x="32" y="18" width="12" height="1" fill="#fd6411"/>
<rect x="48" y="18" width="4" height="1" fill="#fd7f3a"/>
<rect x="52" y="18" width="8" height="1" fill="#fd6411"/>
<rect x="68" y="18" width="4" height="1" fill="#fd7f3a"/>
<rect x="20" y="19" width="2" height="1" fill="#fd7f3a"/>
<rect x="28" y="19" width="4" height="1" fill="#fd7f3a"/>
<rect x="32" y="19" width="12" height="1" fill="#fd6411"/>
<rect x="48" y="19" width="4" height="1" fill="#fd7f3a"/>
<rect x="52" y="19" width="8" height="1" fill="#fd6411"/>
<rect x="68" y="19" width="4" height="1" fill="#fd7f3a"/>
<rect x="18" y="20" width="2" height="1" fill="#fd7f3a"/>
<rect x="20" y="20" width="2" height="1" fill="#fd6411"/>
<rect x="28" y="20" width="2" height="1" fill="#fd7f3a"/>
<rect x="30" y="20" width="10" height="1" fill="#fd6411"/>
<rect x="40" y="20" width="2" height="1" fill="#cd4a00"/>
<rect x="42" y="20" width="2" height="1" fill="#fd6411"/>
<rect x="48" y="20" width="2" height="1" fill="#fd7f3a"/>
<rect x="50" y="20" width="12" height="1" fill="#fd6411"/>
<rect x="68" y="20" width="4" height="1" fill="#fd6411"/>
<rect x="18" y="21" width="2" height="1" fill="#fd7f3a"/>
<rect x="20" y="21" width="2" height="1" fill="#fd6411"/>
<rect x="28" y="21" width="2" height="1" fill="#fd7f3a"/>
<rect x="30" y="21" width="10" height="1" fill="#fd6411"/>
<rect x="40" y="21" width="2" height="1" fill="#cd4a00"/>
<rect x="42" y="21" width="2" height="1" fill="#fd6411"/>
<rect x="48" y="21" width="2" height="1" fill="#fd7f3a"/>
<rect x="50" y="21" width="12" height="1" fill="#fd6411"/>
<rect x="68" y="21" width="4" height="1" fill="#fd6411"/>
<rect x="16" y="22" width="2" height="1" fill="#fd7f3a"/>
<rect x="18" y="22" width="2" height="1" fill="#fd6411"/>
<rect x="26" y="22" width="4" height="1" fill="#fd7f3a"/>
<rect x="30" y="22" width="12" height="1" fill="#fd6411"/>
<rect x="46" y="22" width="2" height="1" fill="#fd7f3a"/>
<rect x="48" y="22" width="10" height="1" fill="#fd6411"/>
<rect x="58" y="22" width="2" height="1" fill="#cd4a00"/>
<rect x="60" y="22" width="2" height="1" fill="#fd6411"/>
<rect x="70" y="22" width="4" height="1" fill="#fd6411"/>
<rect x="16" y="23" width="2" height="1" fill="#fd7f3a"/>
<rect x="18" y="23" width="2" height="1" fill="#fd6411"/>
<rect x="26" y="23" width="4" height="1" fill="#fd7f3a"/>
<rect x="30" y="23" width="12" height="1" fill="#fd6411"/>
<rect x="46" y="23" width="2" height="1" fill="#fd7f3a"/>
<rect x="48" y="23" width="10" height="1" fill="#fd6411"/>
<rect x="58" y="23" width="2" height="1" fill="#cd4a00"/>
<rect x="60" y="23" width="2" height="1" fill="#fd6411"/>
<rect x="70" y="23" width="4" height="1" fill="#fd6411"/>
<rect x="16" y="24" width="2" height="1" fill="#fd7f3a"/>
<rect x="18" y="24" width="2" height="1" fill="#fd6411"/>
<rect x="26" y="24" width="2" height="1" fill="#fd7f3a"/>
<rect x="28" y="24" width="10" height="1" fill="#fd6411"/>
<rect x="38" y="24" width="2" height="1" fill="#cd4a00"/>
<rect x="40" y="24" width="2" height="1" fill="#fd6411"/>
<rect x="46" y="24" width="2" height="1" fill="#fd7f3a"/>
<rect x="48" y="24" width="8" height="1" fill="#fd6411"/>
<rect x="56" y="24" width="2" height="1" fill="#cd4a00"/>
<rect x="58" y="24" width="2" height="1" fill="#fd6411"/>
<rect x="60" y="24" width="4" height="1" fill="#cd4a00"/>
<rect x="70" y="24" width="4" height="1" fill="#fd6411"/>
<rect x="16" y="25" width="2" height="1" fill="#fd7f3a"/>
<rect x="18" y="25" width="2" height="1" fill="#fd6411"/>
<rect x="26" y="25" width="2" height="1" fill="#fd7f3a"/>
<rect x="28" y="25" width="10" height="1" fill="#fd6411"/>
<rect x="38" y="25" width="2" height="1" fill="#cd4a00"/>
<rect x="40" y="25" width="2" height="1" fill="#fd6411"/>
<rect x="46" y="25" width="2" height="1" fill="#fd7f3a"/>
<rect x="48" y="25" width="8" height="1" fill="#fd6411"/>
<rect x="56" y="25" width="2" height="1" fill="#cd4a00"/>
<rect x="58" y="25" width="2" height="1" fill="#fd6411"/>
<rect x="60" y="25" width="4" height="1" fill="#cd4a00"/>
<rect x="70" y="25" width="4" height="1" fill="#fd6411"/>
<rect x="16" y="26" width="4" height="1" fill="#fd6411"/>
<rect x="26" y="26" width="12" height="1" fill="#fd6411"/>
<rect x="38" y="26" width="2" height="1" fill="#cd4a00"/>
<rect x="40" y="26" width="2" height="1" fill="#fd6411"/>
<rect x="46" y="26" width="1" height="1" fill="#fd7f3a"/>
<rect x="47" y="26" width="9" height="1" fill="#fd6411"/>
<rect x="56" y="26" width="2" height="1" fill="#cd4a00"/>
<rect x="58" y="26" width="2" height="1" fill="#fd6411"/>
<rect x="60" y="26" width="4" height="1" fill="#cd4a00"/>
<rect x="70" y="26" width="4" height="1" fill="#fd6411"/>
<rect x="16" y="27" width="4" height="1" fill="#fd6411"/>
<rect x="26" y="27" width="10" height="1" fill="#fd6411"/>
<rect x="36" y="27" width="2" height="1" fill="#cd4a00"/>
<rect x="38" y="27" width="2" height="1" fill="#fd6411"/>
<rect x="40" y="27" width="2" height="1" fill="#cd4a00"/>
<rect x="46" y="27" width="12" height="1" fill="#fd6411"/>
<rect x="58" y="27" width="6" height="1" fill="#cd4a00"/>
<rect x="70" y="27" width="4" height="1" fill="#fd6411"/>
<rect x="16" y="28" width="4" height="1" fill="#fd6411"/>
<rect x="26" y="28" width="10" height="1" fill="#fd6411"/>
<rect x="36" y="28" width="2" height="1" fill="#cd4a00"/>
<rect x="38" y="28" width="2" height="1" fill="#fd6411"/>
<rect x="40" y="28" width="2" height="1" fill="#cd4a00"/>
<rect x="46" y="28" width="12" height="1" fill="#fd6411"/>
<rect x="58" y="28" width="6" height="1" fill="#cd4a00"/>
<rect x="70" y="28" width="4" height="1" fill="#fd6411"/>
<rect x="26" y="29" width="6" height="1" fill="#fd6411"/>
<rect x="32" y="29" width="2" height="1" fill="#cd4a00"/>
<rect x="34" y="29" width="4" height="1" fill="#fd6411"/>
<rect x="38" y="29" width="4" height="1" fill="#cd4a00"/>
<rect x="46" y="29" width="4" height="1" fill="#fd6411"/>
<rect x="50" y="29" width="2" height="1" fill="#cd4a00"/>
<rect x="52" y="29" width="2" height="1" fill="#fd6411"/>
<rect x="54" y="29" width="2" height="1" fill="#cd4a00"/>
<rect x="56" y="29" width="4" height="1" fill="#fd6411"/>
<rect x="62" y="29" width="2" height="1" fill="#cd4a00"/>
<rect x="26" y="30" width="6" height="1" fill="#fd6411"/>
<rect x="32" y="30" width="2" height="1" fill="#cd4a00"/>
<rect x="34" y="30" width="4" height="1" fill="#fd6411"/>
<rect x="38" y="30" width="4" height="1" fill="#cd4a00"/>
<rect x="46" y="30" width="4" height="1" fill="#fd6411"/>
<rect x="50" y="30" width="2" height="1" fill="#cd4a00"/>
<rect x="52" y="30" width="2" height="1" fill="#fd6411"/>
<rect x="54" y="30" width="2" height="1" fill="#cd4a00"/>
<rect x="56" y="30" width="4" height="1" fill="#fd6411"/>
<rect x="62" y="30" width="2" height="1" fill="#cd4a00"/>
<rect x="18" y="31" width="4" height="1" fill="#fd7f3a"/>
<rect x="22" y="31" width="2" height="1" fill="#fd6411"/>
<rect x="28" y="31" width="2" height="1" fill="#fd6411"/>
<rect x="30" y="31" width="2" height="1" fill="#cd4a00"/>
<rect x="32" y="31" width="2" height="1" fill="#fd6411"/>
<rect x="34" y="31" width="6" height="1" fill="#cd4a00"/>
<rect x="48" y="31" width="4" height="1" fill="#fd6411"/>
<rect x="52" y="31" width="2" height="1" fill="#cd4a00"/>
<rect x="54" y="31" width="2" height="1" fill="#fd6411"/>
<rect x="56" y="31" width="6" height="1" fill="#cd4a00"/>
<rect x="66" y="31" width="6" height="1" fill="#fd7f3a"/>
<rect x="74" y="31" width="2" height="1" fill="#fd6411"/>
<rect x="18" y="32" width="4" height="1" fill="#fd7f3a"/>
<rect x="22" y="32" width="2" height="1" fill="#fd6411"/>
<rect x="28" y="32" width="2" height="1" fill="#fd6411"/>
<rect x="30" y="32" width="2" height="1" fill="#cd4a00"/>
<rect x="32" y="32" width="2" height="1" fill="#fd6411"/>
<rect x="34" y="32" width="6" height="1" fill="#cd4a00"/>
<rect x="48" y="32" width="4" height="1" fill="#fd6411"/>
<rect x="52" y="32" width="2" height="1" fill="#cd4a00"/>
<rect x="54" y="32" width="2" height="1" fill="#fd6411"/>
<rect x="56" y="32" width="6" height="1" fill="#cd4a00"/>
<rect x="66" y="32" width="6" height="1" fill="#fd7f3a"/>
<rect x="74" y="32" width="2" height="1" fill="#fd6411"/>
<rect x="16" y="33" width="4" height="1" fill="#fd7f3a"/>
<rect x="20" y="33" width="4" height="1" fill="#fd6411"/>
<rect x="30" y="33" width="2" height="1" fill="#fd6411"/>
<rect x="32" y="33" width="4" height="1" fill="#cd4a00"/>
<rect x="48" y="33" width="2" height="1" fill="#cd4a00"/>
<rect x="52" y="33" width="2" height="1" fill="#fd6411"/>
<rect x="54" y="33" width="2" height="1" fill="#cd4a00"/>
<rect x="58" y="33" width="2" height="1" fill="#cd4a00"/>
<rect x="64" y="33" width="4" height="1" fill="#fd7f3a"/>
<rect x="68" y="33" width="6" height="1" fill="#fd6411"/>
<rect x="16" y="34" width="4" height="1" fill="#fd7f3a"/>
<rect x="20" y="34" width="4" height="1" fill="#fd6411"/>
<rect x="30" y="34" width="2" height="1" fill="#fd6411"/>
<rect x="32" y="34" width="4" height="1" fill="#cd4a00"/>
<rect x="48" y="34" width="2" height="1" fill="#cd4a00"/>
<rect x="52" y="34" width="2" height="1" fill="#fd6411"/>
<rect x="54" y="34" width="2" height="1" fill="#cd4a00"/>
<rect x="58" y="34" width="2" height="1" fill="#cd4a00"/>
<rect x="64" y="34" width="4" height="1" fill="#fd7f3a"/>
<rect x="68" y="34" width="6" height="1" fill="#fd6411"/>
<rect x="12" y="35" width="4" height="1" fill="#fd7f3a"/>
<rect x="16" y="35" width="10" height="1" fill="#fd6411"/>
<rect x="50" y="35" width="2" height="1" fill="#cd4a00"/>
<rect x="54" y="35" width="2" height="1" fill="#cd4a00"/>
<rect x="62" y="35" width="4" height="1" fill="#fd7f3a"/>
<rect x="66" y="35" width="10" height="1" fill="#fd6411"/>
<rect x="12" y="36" width="4" height="1" fill="#fd7f3a"/>
<rect x="16" y="36" width="10" height="1" fill="#fd6411"/>
<rect x="50" y="36" width="2" height="1" fill="#cd4a00"/>
<rect x="54" y="36" width="2" height="1" fill="#cd4a00"/>
<rect x="62" y="36" width="4" height="1" fill="#fd7f3a"/>
<rect x="66" y="36" width="10" height="1" fill="#fd6411"/>
<rect x="12" y="37" width="2" height="1" fill="#fd7f3a"/>
<rect x="14" y="37" width="12" height="1" fill="#fd6411"/>
<rect x="62" y="37" width="2" height="1" fill="#fd7f3a"/>
<rect x="64" y="37" width="12" height="1" fill="#fd6411"/>
<rect x="12" y="38" width="2" height="1" fill="#fd7f3a"/>
<rect x="14" y="38" width="12" height="1" fill="#fd6411"/>
<rect x="62" y="38" width="2" height="1" fill="#fd7f3a"/>
<rect x="64" y="38" width="12" height="1" fill="#fd6411"/>
<rect x="10" y="39" width="4" height="1" fill="#fd7f3a"/>
<rect x="14" y="39" width="8" height="1" fill="#fd6411"/>
<rect x="22" y="39" width="2" height="1" fill="#cd4a00"/>
<rect x="24" y="39" width="2" height="1" fill="#fd6411"/>
<rect x="26" y="39" width="2" height="1" fill="#cd4a00"/>
<rect x="60" y="39" width="4" height="1" fill="#fd7f3a"/>
<rect x="64" y="39" width="12" height="1" fill="#fd6411"/>
<rect x="76" y="39" width="2" height="1" fill="#cd4a00"/>
<rect x="10" y="40" width="4" height="1" fill="#fd7f3a"/>
<rect x="14" y="40" width="8" height="1" fill="#fd6411"/>
<rect x="22" y="40" width="2" height="1" fill="#cd4a00"/>
<rect x="24" y="40" width="2" height="1" fill="#fd6411"/>
<rect x="26" y="40" width="2" height="1" fill="#cd4a00"/>
<rect x="60" y="40" width="4" height="1" fill="#fd7f3a"/>
<rect x="64" y="40" width="12" height="1" fill="#fd6411"/>
<rect x="76" y="40" width="2" height="1" fill="#cd4a00"/>
<rect x="10" y="41" width="2" height="1" fill="#fd7f3a"/>
<rect x="12" y="41" width="10" height="1" fill="#fd6411"/>
<rect x="22" y="41" width="6" height="1" fill="#cd4a00"/>
<rect x="38" y="41" width="2" height="1" fill="#fd7f3a"/>
<rect x="42" y="41" width="2" height="1" fill="#fd6411"/>
<rect x="48" y="41" width="2" height="1" fill="#fd6411"/>
<rect x="60" y="41" width="2" height="1" fill="#fd7f3a"/>
<rect x="62" y="41" width="12" height="1" fill="#fd6411"/>
<rect x="74" y="41" width="2" height="1" fill="#cd4a00"/>
<rect x="76" y="41" width="2" height="1" fill="#fd6411"/>
<rect x="10" y="42" width="2" height="1" fill="#fd7f3a"/>
<rect x="12" y="42" width="10" height="1" fill="#fd6411"/>
<rect x="22" y="42" width="6" height="1" fill="#cd4a00"/>
<rect x="38" y="42" width="2" height="1" fill="#fd7f3a"/>
<rect x="42" y="42" width="2" height="1" fill="#fd6411"/>
<rect x="48" y="42" width="2" height="1" fill="#fd6411"/>
<rect x="60" y="42" width="2" height="1" fill="#fd7f3a"/>
<rect x="62" y="42" width="12" height="1" fill="#fd6411"/>
<rect x="74" y="42" width="2" height="1" fill="#cd4a00"/>
<rect x="76" y="42" width="2" height="1" fill="#fd6411"/>
<rect x="8" y="43" width="4" height="1" fill="#fd7f3a"/>
<rect x="12" y="43" width="4" height="1" fill="#fd6411"/>
<rect x="16" y="43" width="2" height="1" fill="#cd4a00"/>
<rect x="18" y="43" width="2" height="1" fill="#fd6411"/>
<rect x="20" y="43" width="2" height="1" fill="#cd4a00"/>
<rect x="22" y="43" width="2" height="1" fill="#fd6411"/>
<rect x="34" y="43" width="2" height="1" fill="#fd7f3a"/>
<rect x="36" y="43" width="4" height="1" fill="#fd6411"/>
<rect x="40" y="43" width="12" height="1" fill="#fd7f3a"/>
<rect x="52" y="43" width="2" height="1" fill="#fd6411"/>
<rect x="62" y="43" width="12" height="1" fill="#fd6411"/>
<rect x="74" y="43" width="6" height="1" fill="#cd4a00"/>
<rect x="8" y="44" width="4" height="1" fill="#fd7f3a"/>
<rect x="12" y="44" width="4" height="1" fill="#fd6411"/>
<rect x="16" y="44" width="2" height="1" fill="#cd4a00"/>
<rect x="18" y="44" width="2" height="1" fill="#fd6411"/>
<rect x="20" y="44" width="2" height="1" fill="#cd4a00"/>
<rect x="22" y="44" width="2" height="1" fill="#fd6411"/>
<rect x="34" y="44" width="2" height="1" fill="#fd7f3a"/>
<rect x="36" y="44" width="4" height="1" fill="#fd6411"/>
<rect x="40" y="44" width="12" height="1" fill="#fd7f3a"/>
<rect x="52" y="44" width="2" height="1" fill="#fd6411"/>
<rect x="62" y="44" width="12" height="1" fill="#fd6411"/>
<rect x="74" y="44" width="6" height="1" fill="#cd4a00"/>
<rect x="8" y="45" width="2" height="1" fill="#fd7f3a"/>
<rect x="10" y="45" width="10" height="1" fill="#fd6411"/>
<rect x="20" y="45" width="2" height="1" fill="#cd4a00"/>
<rect x="22" y="45" width="1" height="1" fill="#fd6411"/>
<rect x="23" y="45" width="1" height="1" fill="#cd4a00"/>
<rect x="32" y="45" width="2" height="1" fill="#fd7f3a"/>
<rect x="34" y="45" width="1" height="1" fill="#fd6411"/>
<rect x="35" y="45" width="2" height="1" fill="#fd7f3a"/>
<rect x="37" y="45" width="15" height="1" fill="#fd6411"/>
<rect x="52" y="45" width="2" height="1" fill="#fd7f3a"/>
<rect x="54" y="45" width="2" height="1" fill="#fd6411"/>
<rect x="62" y="45" width="1" height="1" fill="#cd4a00"/>
<rect x="63" y="45" width="3" height="1" fill="#fd6411"/>
<rect x="66" y="45" width="2" height="1" fill="#cd4a00"/>
<rect x="68" y="45" width="2" height="1" fill="#fd6411"/>
<rect x="70" y="45" width="4" height="1" fill="#cd4a00"/>
<rect x="74" y="45" width="2" height="1" fill="#fd6411"/>
<rect x="76" y="45" width="4" height="1" fill="#cd4a00"/>
<rect x="8" y="46" width="2" height="1" fill="#fd7f3a"/>
<rect x="10" y="46" width="10" height="1" fill="#fd6411"/>
<rect x="20" y="46" width="4" height="1" fill="#cd4a00"/>
<rect x="32" y="46" width="2" height="1" fill="#fd7f3a"/>
<rect x="34" y="46" width="2" height="1" fill="#fd6411"/>
<rect x="36" y="46" width="4" height="1" fill="#fd7f3a"/>
<rect x="40" y="46" width="12" height="1" fill="#fd6411"/>
<rect x="52" y="46" width="2" height="1" fill="#fd7f3a"/>
<rect x="54" y="46" width="2" height="1" fill="#fd6411"/>
<rect x="62" y="46" width="2" height="1" fill="#cd4a00"/>
<rect x="64" y="46" width="2" height="1" fill="#fd6411"/>
<rect x="66" y="46" width="2" height="1" fill="#cd4a00"/>
<rect x="68" y="46" width="2" height="1" fill="#fd6411"/>
<rect x="70" y="46" width="4" height="1" fill="#cd4a00"/>
<rect x="74" y="46" width="2" height="1" fill="#fd6411"/>
<rect x="76" y="46" width="4" height="1" fill="#cd4a00"/>
<rect x="8" y="47" width="11" height="1" fill="#fd6411"/>
<rect x="19" y="47" width="3" height="1" fill="#cd4a00"/>
<rect x="33" y="47" width="1" height="1" fill="#fd7f3a"/>
<rect x="34" y="47" width="22" height="1" fill="#fd6411"/>
<rect x="63" y="47" width="1" height="1" fill="#cd4a00"/>
<rect x="64" y="47" width="11" height="1" fill="#fd6411"/>
<rect x="75" y="47" width="3" height="1" fill="#cd4a00"/>
<rect x="8" y="48" width="4" height="1" fill="#fd6411"/>
<rect x="12" y="48" width="2" height="1" fill="#cd4a00"/>
<rect x="14" y="48" width="4" height="1" fill="#fd6411"/>
<rect x="18" y="48" width="4" height="1" fill="#cd4a00"/>
<rect x="30" y="48" width="2" height="1" fill="#fd7f3a"/>
<rect x="34" y="48" width="2" height="1" fill="#fd7f3a"/>
<rect x="36" y="48" width="24" height="1" fill="#fd6411"/>
<rect x="64" y="48" width="2" height="1" fill="#cd4a00"/>
<rect x="66" y="48" width="2" height="1" fill="#fd6411"/>
<rect x="68" y="48" width="2" height="1" fill="#cd4a00"/>
<rect x="70" y="48" width="4" height="1" fill="#fd6411"/>
<rect x="74" y="48" width="4" height="1" fill="#cd4a00"/>
<rect x="10" y="49" width="7" height="1" fill="#fd6411"/>
<rect x="17" y="49" width="3" height="1" fill="#cd4a00"/>
<rect x="30" y="49" width="2" height="1" fill="#fd7f3a"/>
<rect x="33" y="49" width="1" height="1" fill="#fd7f3a"/>
<rect x="34" y="49" width="25" height="1" fill="#fd6411"/>
<rect x="59" y="49" width="1" height="1" fill="#cd4a00"/>
<rect x="68" y="49" width="5" height="1" fill="#fd6411"/>
<rect x="73" y="49" width="1" height="1" fill="#cd4a00"/>
<rect x="75" y="49" width="3" height="1" fill="#cd4a00"/>
<rect x="10" y="50" width="4" height="1" fill="#fd6411"/>
<rect x="14" y="50" width="6" height="1" fill="#cd4a00"/>
<rect x="26" y="50" width="2" height="1" fill="#fd7f3a"/>
<rect x="28" y="50" width="2" height="1" fill="#fd6411"/>
<rect x="30" y="50" width="4" height="1" fill="#fd7f3a"/>
<rect x="34" y="50" width="24" height="1" fill="#fd6411"/>
<rect x="58" y="50" width="2" height="1" fill="#cd4a00"/>
<rect x="60" y="50" width="4" height="1" fill="#fd6411"/>
<rect x="68" y="50" width="2" height="1" fill="#fd6411"/>
<rect x="70" y="50" width="4" height="1" fill="#cd4a00"/>
<rect x="76" y="50" width="2" height="1" fill="#cd4a00"/>
<rect x="10" y="51" width="3" height="1" fill="#fd6411"/>
<rect x="13" y="51" width="3" height="1" fill="#cd4a00"/>
<rect x="27" y="51" width="1" height="1" fill="#fd7f3a"/>
<rect x="28" y="51" width="31" height="1" fill="#fd6411"/>
<rect x="59" y="51" width="1" height="1" fill="#cd4a00"/>
<rect x="70" y="51" width="4" height="1" fill="#cd4a00"/>
<rect x="10" y="52" width="2" height="1" fill="#fd6411"/>
<rect x="12" y="52" width="4" height="1" fill="#cd4a00"/>
<rect x="24" y="52" width="2" height="1" fill="#fd7f3a"/>
<rect x="28" y="52" width="2" height="1" fill="#fd7f3a"/>
<rect x="30" y="52" width="30" height="1" fill="#fd6411"/>
<rect x="64" y="52" width="2" height="1" fill="#fd6411"/>
<rect x="70" y="52" width="6" height="1" fill="#cd4a00"/>
<rect x="10" y="53" width="2" height="1" fill="#fd6411"/>
<rect x="13" y="53" width="3" height="1" fill="#cd4a00"/>
<rect x="27" y="53" width="34" height="1" fill="#fd6411"/>
<rect x="63" y="53" width="1" height="1" fill="#fd6411"/>
<rect x="64" y="53" width="2" height="1" fill="#cd4a00"/>
<rect x="71" y="53" width="3" height="1" fill="#cd4a00"/>
<rect x="10" y="54" width="2" height="1" fill="#fd6411"/>
<rect x="14" y="54" width="2" height="1" fill="#cd4a00"/>
<rect x="22" y="54" width="2" height="1" fill="#fd7f3a"/>
<rect x="26" y="54" width="38" height="1" fill="#fd6411"/>
<rect x="64" y="54" width="2" height="1" fill="#cd4a00"/>
<rect x="72" y="54" width="2" height="1" fill="#cd4a00"/>
<rect x="25" y="55" width="1" height="1" fill="#fd7f3a"/>
<rect x="26" y="55" width="12" height="1" fill="#fd6411"/>
<rect x="40" y="55" width="1" height="1" fill="#fd6411"/>
<rect x="50" y="55" width="14" height="1" fill="#fd6411"/>
<rect x="12" y="56" width="2" height="1" fill="#cd4a00"/>
<rect x="20" y="56" width="2" height="1" fill="#fd7f3a"/>
<rect x="24" y="56" width="2" height="1" fill="#fd7f3a"/>
<rect x="26" y="56" width="12" height="1" fill="#fd6411"/>
<rect x="50" y="56" width="14" height="1" fill="#fd6411"/>
<rect x="66" y="56" width="2" height="1" fill="#fd6411"/>
<rect x="19" y="57" width="3" height="1" fill="#fd7f3a"/>
<rect x="23" y="57" width="1" height="1" fill="#fd7f3a"/>
<rect x="24" y="57" width="13" height="1" fill="#fd6411"/>
<rect x="37" y="57" width="1" height="1" fill="#4a4e52"/>
<rect x="52" y="57" width="12" height="1" fill="#fd6411"/>
<rect x="65" y="57" width="3" height="1" fill="#fd6411"/>
<rect x="18" y="58" width="6" height="1" fill="#fd7f3a"/>
<rect x="24" y="58" width="12" height="1" fill="#fd6411"/>
<rect x="36" y="58" width="14" height="1" fill="#4a4e52"/>
<rect x="52" y="58" width="14" height="1" fill="#fd6411"/>
<rect x="66" y="58" width="2" height="1" fill="#cd4a00"/>
<rect x="68" y="58" width="2" height="1" fill="#fd6411"/>
<rect x="18" y="59" width="6" height="1" fill="#fd7f3a"/>
<rect x="24" y="59" width="12" height="1" fill="#fd6411"/>
<rect x="36" y="59" width="14" height="1" fill="#4a4e52"/>
<rect x="52" y="59" width="14" height="1" fill="#fd6411"/>
<rect x="66" y="59" width="2" height="1" fill="#cd4a00"/>
<rect x="68" y="59" width="2" height="1" fill="#fd6411"/>
<rect x="16" y="60" width="4" height="1" fill="#fd7f3a"/>
<rect x="20" y="60" width="14" height="1" fill="#fd6411"/>
<rect x="34" y="60" width="4" height="1" fill="#4a4e52"/>
<rect x="50" y="60" width="2" height="1" fill="#4a4e52"/>
<rect x="54" y="60" width="14" height="1" fill="#fd6411"/>
<rect x="68" y="60" width="2" height="1" fill="#cd4a00"/>
<rect x="70" y="60" width="2" height="1" fill="#fd6411"/>
<rect x="16" y="61" width="4" height="1" fill="#fd7f3a"/>
<rect x="20" y="61" width="14" height="1" fill="#fd6411"/>
<rect x="34" y="61" width="4" height="1" fill="#4a4e52"/>
<rect x="50" y="61" width="2" height="1" fill="#4a4e52"/>
<rect x="54" y="61" width="14" height="1" fill="#fd6411"/>
<rect x="68" y="61" width="2" height="1" fill="#cd4a00"/>
<rect x="70" y="61" width="2" height="1" fill="#fd6411"/>
<rect x="15" y="62" width="3" height="1" fill="#fd7f3a"/>
<rect x="18" y="62" width="16" height="1" fill="#fd6411"/>
<rect x="34" y="62" width="2" height="1" fill="#4a4e52"/>
<rect x="54" y="62" width="16" height="1" fill="#fd6411"/>
<rect x="70" y="62" width="2" height="1" fill="#cd4a00"/>
<rect x="14" y="63" width="4" height="1" fill="#fd7f3a"/>
<rect x="18" y="63" width="16" height="1" fill="#fd6411"/>
<rect x="34" y="63" width="2" height="1" fill="#4a4e52"/>
<rect x="54" y="63" width="16" height="1" fill="#fd6411"/>
<rect x="70" y="63" width="4" height="1" fill="#cd4a00"/>
<rect x="14" y="64" width="2" height="1" fill="#fd7f3a"/>
<rect x="16" y="64" width="16" height="1" fill="#fd6411"/>
<rect x="34" y="64" width="2" height="1" fill="#4a4e52"/>
<rect x="56" y="64" width="14" height="1" fill="#fd6411"/>
<rect x="71" y="64" width="3" height="1" fill="#cd4a00"/>
<rect x="14" y="65" width="4" height="1" fill="#fd7f3a"/>
<rect x="18" y="65" width="14" height="1" fill="#fd6411"/>
<rect x="34" y="65" width="2" height="1" fill="#4a4e52"/>
<rect x="52" y="65" width="2" height="1" fill="#4a4e52"/>
<rect x="56" y="65" width="14" height="1" fill="#fd6411"/>
<rect x="72" y="65" width="4" height="1" fill="#cd4a00"/>
<rect x="14" y="66" width="4" height="1" fill="#fd7f3a"/>
<rect x="18" y="66" width="13" height="1" fill="#fd6411"/>
<rect x="31" y="66" width="1" height="1" fill="#4a4e52"/>
<rect x="34" y="66" width="1" height="1" fill="#4a4e52"/>
<rect x="52" y="66" width="2" height="1" fill="#4a4e52"/>
<rect x="56" y="66" width="14" height="1" fill="#fd6411"/>
<rect x="72" y="66" width="4" height="1" fill="#cd4a00"/>
<rect x="12" y="67" width="2" height="1" fill="#fd7f3a"/>
<rect x="14" y="67" width="14" height="1" fill="#fd6411"/>
<rect x="28" y="67" width="6" height="1" fill="#4a4e52"/>
<rect x="50" y="67" width="8" height="1" fill="#4a4e52"/>
<rect x="60" y="67" width="6" height="1" fill="#fd6411"/>
<rect x="66" y="67" width="2" height="1" fill="#cd4a00"/>
<rect x="68" y="67" width="2" height="1" fill="#fd6411"/>
<rect x="70" y="67" width="2" height="1" fill="#cd4a00"/>
<rect x="74" y="67" width="2" height="1" fill="#cd4a00"/>
<rect x="12" y="68" width="2" height="1" fill="#fd7f3a"/>
<rect x="14" y="68" width="14" height="1" fill="#fd6411"/>
<rect x="28" y="68" width="6" height="1" fill="#4a4e52"/>
<rect x="50" y="68" width="8" height="1" fill="#4a4e52"/>
<rect x="60" y="68" width="6" height="1" fill="#fd6411"/>
<rect x="66" y="68" width="2" height="1" fill="#cd4a00"/>
<rect x="68" y="68" width="2" height="1" fill="#fd6411"/>
<rect x="70" y="68" width="2" height="1" fill="#cd4a00"/>
<rect x="74" y="68" width="2" height="1" fill="#cd4a00"/>
<rect x="10" y="69" width="4" height="1" fill="#fd7f3a"/>
<rect x="16" y="69" width="10" height="1" fill="#fd6411"/>
<rect x="26" y="69" width="4" height="1" fill="#4a4e52"/>
<rect x="50" y="69" width="2" height="1" fill="#4a4e52"/>
<rect x="58" y="69" width="2" height="1" fill="#4a4e52"/>
<rect x="62" y="69" width="4" height="1" fill="#fd6411"/>
<rect x="66" y="69" width="4" height="1" fill="#cd4a00"/>
<rect x="70" y="69" width="2" height="1" fill="#fd6411"/>
<rect x="10" y="70" width="4" height="1" fill="#fd7f3a"/>
<rect x="16" y="70" width="10" height="1" fill="#fd6411"/>
<rect x="26" y="70" width="4" height="1" fill="#4a4e52"/>
<rect x="50" y="70" width="2" height="1" fill="#4a4e52"/>
<rect x="58" y="70" width="2" height="1" fill="#4a4e52"/>
<rect x="62" y="70" width="4" height="1" fill="#fd6411"/>
<rect x="66" y="70" width="4" height="1" fill="#cd4a00"/>
<rect x="70" y="70" width="2" height="1" fill="#fd6411"/>
<rect x="10" y="71" width="2" height="1" fill="#fd7f3a"/>
<rect x="14" y="71" width="2" height="1" fill="#fd7f3a"/>
<rect x="16" y="71" width="10" height="1" fill="#fd6411"/>
<rect x="26" y="71" width="2" height="1" fill="#4a4e52"/>
<rect x="62" y="71" width="2" height="1" fill="#fd6411"/>
<rect x="64" y="71" width="2" height="1" fill="#cd4a00"/>
<rect x="66" y="71" width="2" height="1" fill="#fd6411"/>
<rect x="68" y="71" width="6" height="1" fill="#cd4a00"/>
<rect x="76" y="71" width="2" height="1" fill="#cd4a00"/>
<rect x="10" y="72" width="2" height="1" fill="#fd7f3a"/>
<rect x="14" y="72" width="2" height="1" fill="#fd7f3a"/>
<rect x="16" y="72" width="10" height="1" fill="#fd6411"/>
<rect x="26" y="72" width="2" height="1" fill="#4a4e52"/>
<rect x="62" y="72" width="2" height="1" fill="#fd6411"/>
<rect x="64" y="72" width="2" height="1" fill="#cd4a00"/>
<rect x="66" y="72" width="2" height="1" fill="#fd6411"/>
<rect x="68" y="72" width="6" height="1" fill="#cd4a00"/>
<rect x="76" y="72" width="2" height="1" fill="#cd4a00"/>
<rect x="8" y="73" width="2" height="1" fill="#fd7f3a"/>
<rect x="14" y="73" width="2" height="1" fill="#fd7f3a"/>
<rect x="16" y="73" width="10" height="1" fill="#fd6411"/>
<rect x="26" y="73" width="2" height="1" fill="#4a4e52"/>
<rect x="62" y="73" width="2" height="1" fill="#cd4a00"/>
<rect x="64" y="73" width="2" height="1" fill="#fd6411"/>
<rect x="66" y="73" width="2" height="1" fill="#cd4a00"/>
<rect x="68" y="73" width="2" height="1" fill="#fd6411"/>
<rect x="72" y="73" width="2" height="1" fill="#cd4a00"/>
<rect x="8" y="74" width="2" height="1" fill="#fd7f3a"/>
<rect x="14" y="74" width="2" height="1" fill="#fd7f3a"/>
<rect x="16" y="74" width="10" height="1" fill="#fd6411"/>
<rect x="26" y="74" width="2" height="1" fill="#4a4e52"/>
<rect x="62" y="74" width="2" height="1" fill="#cd4a00"/>
<rect x="64" y="74" width="2" height="1" fill="#fd6411"/>
<rect x="66" y="74" width="2" height="1" fill="#cd4a00"/>
<rect x="68" y="74" width="2" height="1" fill="#fd6411"/>
<rect x="72" y="74" width="2" height="1" fill="#cd4a00"/>
<rect x="12" y="75" width="2" height="1" fill="#fd7f3a"/>
<rect x="14" y="75" width="4" height="1" fill="#fd6411"/>
<rect x="18" y="75" width="2" height="1" fill="#cd4a00"/>
<rect x="20" y="75" width="6" height="1" fill="#fd6411"/>
<rect x="26" y="75" width="2" height="1" fill="#4a4e52"/>
<rect x="62" y="75" width="2" height="1" fill="#fd6411"/>
<rect x="64" y="75" width="2" height="1" fill="#cd4a00"/>
<rect x="66" y="75" width="2" height="1" fill="#fd6411"/>
<rect x="68" y="75" width="4" height="1" fill="#cd4a00"/>
<rect x="74" y="75" width="2" height="1" fill="#cd4a00"/>
<rect x="12" y="76" width="2" height="1" fill="#fd7f3a"/>
<rect x="14" y="76" width="4" height="1" fill="#fd6411"/>
<rect x="18" y="76" width="2" height="1" fill="#cd4a00"/>
<rect x="20" y="76" width="6" height="1" fill="#fd6411"/>
<rect x="26" y="76" width="2" height="1" fill="#4a4e52"/>
<rect x="62" y="76" width="2" height="1" fill="#fd6411"/>
<rect x="64" y="76" width="2" height="1" fill="#cd4a00"/>
<rect x="66" y="76" width="2" height="1" fill="#fd6411"/>
<rect x="68" y="76" width="4" height="1" fill="#cd4a00"/>
<rect x="74" y="76" width="2" height="1" fill="#cd4a00"/>
<rect x="12" y="77" width="2" height="1" fill="#fd7f3a"/>
<rect x="14" y="77" width="4" height="1" fill="#cd4a00"/>
<rect x="18" y="77" width="2" height="1" fill="#fd6411"/>
<rect x="20" y="77" width="4" height="1" fill="#cd4a00"/>
<rect x="24" y="77" width="2" height="1" fill="#fd6411"/>
<rect x="62" y="77" width="2" height="1" fill="#cd4a00"/>
<rect x="64" y="77" width="2" height="1" fill="#fd6411"/>
<rect x="66" y="77" width="6" height="1" fill="#cd4a00"/>
<rect x="74" y="77" width="2" height="1" fill="#cd4a00"/>
<rect x="12" y="78" width="2" height="1" fill="#fd7f3a"/>
<rect x="14" y="78" width="4" height="1" fill="#cd4a00"/>
<rect x="18" y="78" width="2" height="1" fill="#fd6411"/>
<rect x="20" y="78" width="4" height="1" fill="#cd4a00"/>
<rect x="24" y="78" width="2" height="1" fill="#fd6411"/>
<rect x="62" y="78" width="2" height="1" fill="#cd4a00"/>
<rect x="64" y="78" width="2" height="1" fill="#fd6411"/>
<rect x="66" y="78" width="6" height="1" fill="#cd4a00"/>
<rect x="74" y="78" width="2" height="1" fill="#cd4a00"/>
<rect x="12" y="79" width="2" height="1" fill="#fd6411"/>
<rect x="16" y="79" width="2" height="1" fill="#fd6411"/>
<rect x="18" y="79" width="2" height="1" fill="#cd4a00"/>
<rect x="20" y="79" width="4" height="1" fill="#fd6411"/>
<rect x="24" y="79" width="2" height="1" fill="#cd4a00"/>
<rect x="26" y="79" width="2" height="1" fill="#fd6411"/>
<rect x="30" y="79" width="2" height="1" fill="#fd6411"/>
<rect x="34" y="79" width="2" height="1" fill="#fd6411"/>
<rect x="36" y="79" width="2" height="1" fill="#cd4a00"/>
<rect x="50" y="79" width="2" height="1" fill="#cd4a00"/>
<rect x="56" y="79" width="2" height="1" fill="#fd6411"/>
<rect x="60" y="79" width="2" height="1" fill="#fd6411"/>
<rect x="62" y="79" width="6" height="1" fill="#cd4a00"/>
<rect x="70" y="79" width="2" height="1" fill="#cd4a00"/>
<rect x="12" y="80" width="2" height="1" fill="#fd6411"/>
<rect x="16" y="80" width="2" height="1" fill="#fd6411"/>
<rect x="18" y="80" width="2" height="1" fill="#cd4a00"/>
<rect x="20" y="80" width="4" height="1" fill="#fd6411"/>
<rect x="24" y="80" width="2" height="1" fill="#cd4a00"/>
<rect x="26" y="80" width="2" height="1" fill="#fd6411"/>
<rect x="30" y="80" width="2" height="1" fill="#fd6411"/>
<rect x="34" y="80" width="2" height="1" fill="#fd6411"/>
<rect x="36" y="80" width="2" height="1" fill="#cd4a00"/>
<rect x="50" y="80" width="2" height="1" fill="#cd4a00"/>
<rect x="56" y="80" width="2" height="1" fill="#fd6411"/>
<rect x="60" y="80" width="2" height="1" fill="#fd6411"/>
<rect x="62" y="80" width="6" height="1" fill="#cd4a00"/>
<rect x="70" y="80" width="2" height="1" fill="#cd4a00"/>
<rect x="12" y="81" width="2" height="1" fill="#fd6411"/>
<rect x="16" y="81" width="1" height="1" fill="#fd6411"/>
<rect x="17" y="81" width="3" height="1" fill="#cd4a00"/>
<rect x="20" y="81" width="7" height="1" fill="#fd6411"/>
<rect x="27" y="81" width="1" height="1" fill="#cd4a00"/>
<rect x="29" y="81" width="2" height="1" fill="#fd6411"/>
<rect x="31" y="81" width="1" height="1" fill="#cd4a00"/>
<rect x="33" y="81" width="2" height="1" fill="#fd6411"/>
<rect x="35" y="81" width="1" height="1" fill="#cd4a00"/>
<rect x="40" y="81" width="1" height="1" fill="#fd6411"/>
<rect x="46" y="81" width="1" height="1" fill="#fd6411"/>
<rect x="56" y="81" width="2" height="1" fill="#cd4a00"/>
<rect x="60" y="81" width="1" height="1" fill="#cd4a00"/>
<rect x="61" y="81" width="1" height="1" fill="#fd6411"/>
<rect x="62" y="81" width="6" height="1" fill="#cd4a00"/>
<rect x="70" y="81" width="2" height="1" fill="#cd4a00"/>
<rect x="12" y="82" width="2" height="1" fill="#fd6411"/>
<rect x="16" y="82" width="8" height="1" fill="#cd4a00"/>
<rect x="24" y="82" width="2" height="1" fill="#fd6411"/>
<rect x="26" y="82" width="2" height="1" fill="#cd4a00"/>
<rect x="28" y="82" width="2" height="1" fill="#fd6411"/>
<rect x="30" y="82" width="2" height="1" fill="#cd4a00"/>
<rect x="32" y="82" width="2" height="1" fill="#fd6411"/>
<rect x="34" y="82" width="2" height="1" fill="#cd4a00"/>
<rect x="40" y="82" width="2" height="1" fill="#fd6411"/>
<rect x="46" y="82" width="2" height="1" fill="#fd6411"/>
<rect x="52" y="82" width="2" height="1" fill="#cd4a00"/>
<rect x="54" y="82" width="2" height="1" fill="#fd6411"/>
<rect x="56" y="82" width="2" height="1" fill="#cd4a00"/>
<rect x="58" y="82" width="2" height="1" fill="#fd6411"/>
<rect x="60" y="82" width="8" height="1" fill="#cd4a00"/>
<rect x="70" y="82" width="2" height="1" fill="#cd4a00"/>
<rect x="16" y="83" width="2" height="1" fill="#cd4a00"/>
<rect x="19" y="83" width="5" height="1" fill="#cd4a00"/>
<rect x="24" y="83" width="1" height="1" fill="#fd6411"/>
<rect x="25" y="83" width="3" height="1" fill="#cd4a00"/>
<rect x="28" y="83" width="1" height="1" fill="#fd6411"/>
<rect x="29" y="83" width="3" height="1" fill="#cd4a00"/>
<rect x="32" y="83" width="1" height="1" fill="#fd6411"/>
<rect x="33" y="83" width="3" height="1" fill="#cd4a00"/>
<rect x="52" y="83" width="2" height="1" fill="#cd4a00"/>
<rect x="54" y="83" width="2" height="1" fill="#fd6411"/>
<rect x="56" y="83" width="2" height="1" fill="#cd4a00"/>
<rect x="58" y="83" width="2" height="1" fill="#fd6411"/>
<rect x="60" y="83" width="6" height="1" fill="#cd4a00"/>
<rect x="16" y="84" width="2" height="1" fill="#cd4a00"/>
<rect x="20" y="84" width="16" height="1" fill="#cd4a00"/>
<rect x="38" y="84" width="2" height="1" fill="#fd6411"/>
<rect x="42" y="84" width="4" height="1" fill="#fd6411"/>
<rect x="48" y="84" width="2" height="1" fill="#fd6411"/>
<rect x="52" y="84" width="14" height="1" fill="#cd4a00"/>
<rect x="19" y="85" width="1" height="1" fill="#cd4a00"/>
<rect x="21" y="85" width="3" height="1" fill="#cd4a00"/>
<rect x="25" y="85" width="1" height="1" fill="#cd4a00"/>
<rect x="26" y="85" width="1" height="1" fill="#fd6411"/>
<rect x="27" y="85" width="1" height="1" fill="#cd4a00"/>
<rect x="29" y="85" width="5" height="1" fill="#cd4a00"/>
<rect x="54" y="85" width="4" height="1" fill="#cd4a00"/>
<rect x="60" y="85" width="2" height="1" fill="#cd4a00"/>
<rect x="18" y="86" width="2" height="1" fill="#cd4a00"/>
<rect x="22" y="86" width="2" height="1" fill="#cd4a00"/>
<rect x="26" y="86" width="2" height="1" fill="#fd6411"/>
<rect x="30" y="86" width="4" height="1" fill="#cd4a00"/>
<rect x="36" y="86" width="2" height="1" fill="#fd6411"/>
<rect x="50" y="86" width="2" height="1" fill="#fd6411"/>
<rect x="54" y="86" width="4" height="1" fill="#cd4a00"/>
<rect x="60" y="86" width="2" height="1" fill="#cd4a00"/>
<rect x="66" y="86" width="2" height="1" fill="#cd4a00"/>
<rect x="54" y="87" width="3" height="1" fill="#cd4a00"/>
<rect x="24" y="88" width="2" height="1" fill="#cd4a00"/>
<rect x="28" y="88" width="2" height="1" fill="#cd4a00"/>
<rect x="54" y="88" width="2" height="1" fill="#cd4a00"/>
<rect x="58" y="88" width="2" height="1" fill="#cd4a00"/>
<rect x="62" y="88" width="2" height="1" fill="#cd4a00"/>
</svg>